<svg id="Layer_1" data-name="Layer 1" xmlns="http://www.w3.org/2000/svg" viewBox="0 0 314 314"><defs><style>.cls-1{fill:#7897a3;}.cls-2{fill:#fff;}</style></defs><path class="cls-1" d="M654.24,548.57c-86.29,0-156.5-70.21-156.5-156.5s70.21-156.5,156.5-156.5,156.5,70.21,156.5,156.5S740.53,548.57,654.24,548.57ZM655.78,416c-6.73,0-12.07,2-15.86,6.06a20.19,20.19,0,0,0-5.72,14.3,19.18,19.18,0,0,0,4.76,13c3.18,3.63,7.65,5.47,13.29,5.47,6.67,0,12-2.12,15.76-6.29a21,21,0,0,0,5.71-14.52,18.66,18.66,0,0,0-4.66-12.74C666,417.79,661.49,416,655.78,416Zm1.1-110.91c-12,0-18.15,7.22-18.15,21.47,0,12.93,3.2,35.65,9.5,67.53l.08.4h12l.1-.37c8.58-30.93,12.93-53.89,12.93-68.22C673.38,312.1,667.83,305.1,656.88,305.1Z" transform="translate(-497.24 -235.07)"/><path class="cls-2" d="M654.24,236.07a156,156,0,1,1-110.31,45.69,155,155,0,0,1,110.31-45.69M647.9,395h12.83l.2-.73c8.59-31,13-54,13-68.36,0-14.14-5.72-21.31-17-21.31-12.38,0-18.65,7.39-18.65,22,0,13,3.2,35.72,9.51,67.62l.16.81m4.35,60.36c6.82,0,12.24-2.17,16.13-6.46a21.47,21.47,0,0,0,5.84-14.85A19.15,19.15,0,0,0,669.44,421c-3.2-3.63-7.8-5.47-13.66-5.47-6.88,0-12.33,2.09-16.23,6.21a20.74,20.74,0,0,0-5.85,14.65,19.66,19.66,0,0,0,4.89,13.35c3.27,3.74,7.87,5.64,13.66,5.64m2-220.29a157,157,0,1,0,157,157,157,157,0,0,0-157-157ZM648.72,394q-9.5-48-9.49-67.43,0-21,17.65-21,16,0,16,20.31,0,21.51-12.91,68.09Zm3.53,60.36q-8.28,0-12.91-5.3a18.62,18.62,0,0,1-4.64-12.69,19.65,19.65,0,0,1,5.58-14q5.57-5.9,15.5-5.9,8.38,0,12.91,5.13a18.1,18.1,0,0,1,4.53,12.41,20.41,20.41,0,0,1-5.58,14.18q-5.57,6.13-15.39,6.13Z" transform="translate(-497.24 -235.07)"/></svg>